<svg width="512" height="512" viewBox="0 0 512 512" fill="none" xmlns="http://www.w3.org/2000/svg">
<rect width="512" height="512" fill="black"/>
<mask id="mask0_876_133" style="mask-type:luminance" maskUnits="userSpaceOnUse" x="43" y="174" width="424" height="165">
<path d="M466.932 174H43V338.959H466.932V174Z" fill="white"/>
</mask>
<g mask="url(#mask0_876_133)">
<path d="M43 201.5C43 183.176 55.2125 174 79.5944 174H88.7609C119.278 174 134.536 186.226 134.536 210.634C134.536 222.859 130.7 231.992 123.114 238.134C130.743 244.218 134.536 253.409 134.536 265.634C134.536 290.085 119.278 302.268 88.7609 302.268H79.5944C55.1694 302.268 43 293.092 43 274.768V201.5ZM88.8185 192.324H80.442C74.8674 192.324 72.0656 195.373 72.0656 201.5V229.001H88.8185C99.9534 229.001 105.571 222.917 105.571 210.677C105.571 198.451 99.9965 192.31 88.8185 192.31V192.324ZM88.8185 247.325H72.0656V274.926C72.0656 281.067 74.8674 284.102 80.442 284.102H88.8185C99.9534 284.102 105.571 277.961 105.571 265.692C105.571 253.423 99.9965 247.325 88.8185 247.325Z" fill="#FF1A00"/>
<path d="M267.322 256.372V302.196H239.851V256.372C239.851 238.048 233.773 228.872 221.547 228.872L215.081 229.016C209.004 229.016 205.915 232.065 205.915 238.192V302.326H178.444V238.134C178.444 219.81 190.656 210.634 215.038 210.634L221.504 210.49C252.064 210.533 267.322 225.808 267.322 256.358V256.372Z" fill="#FF1A00"/>
<path d="M321.286 302.283C290.813 302.283 275.554 287.051 275.511 256.645C275.468 231.245 296.014 210.634 321.372 210.634H330.452C354.878 210.634 367.047 219.81 367.047 238.134V293.135C367.047 318.435 346.544 338.959 321.271 338.959H300.396C297.206 338.959 295.439 335.263 297.407 332.775L304.061 324.432C305.984 322.045 308.886 320.635 311.92 320.635H321.23C331.805 320.635 337.751 313.789 339.16 300.111C334.017 301.563 328.025 302.268 321.286 302.268V302.283ZM302.981 256.458C302.981 274.782 309.059 283.959 321.286 283.959C333.514 283.959 339.592 274.782 339.592 256.458V238.134C339.592 232.05 336.545 228.958 330.424 228.958H321.258C309.087 229.001 303.01 238.134 303.01 256.458H302.981Z" fill="#FF1A00"/>
<path d="M466.831 256.459L466.932 263.621C466.932 264.743 466.041 265.635 464.962 265.635H405.753C404.491 265.635 403.556 266.8 403.786 268.022C405.983 278.652 411.746 283.959 421.012 283.959C432.062 283.959 438.096 280.723 439.172 275.617C439.361 274.682 440.151 273.934 441.142 273.934H464.632C465.853 273.934 466.787 275.013 466.601 276.235C464.632 290.1 451.673 301.017 425.84 302.197C397.478 303.505 373.801 280.032 375.437 251.683C376.976 224.37 392.191 210.692 421.069 210.692C451.586 210.692 466.844 225.923 466.844 256.473L466.831 256.459ZM436.358 247.325C437.621 247.325 438.555 246.16 438.325 244.938C436.128 234.309 430.366 229.001 421.1 229.001C411.831 229.001 406.071 234.294 403.871 244.938C403.641 246.16 404.576 247.325 405.841 247.325H436.358Z" fill="#FF1A00"/>
<path d="M142.783 302.368H170.254V219.392C170.254 215.509 166.045 213.064 162.668 215.034L145.872 224.829C143.947 225.951 142.783 227.965 142.783 230.165V302.368Z" fill="#FF1A00"/>
<path d="M148.487 178.962L170.297 191.475C173.99 193.589 174.09 198.926 170.441 201.04L148.918 213.553C145.269 215.667 140.628 213.035 140.585 208.778L140.254 183.766C140.211 179.552 144.795 176.876 148.487 178.991V178.962Z" fill="#FF1A00"/>
<path d="M142.826 184.399V208.62C142.826 211.051 145.498 212.604 147.596 211.382L168.558 199.3C170.671 198.077 170.671 194.985 168.558 193.777L147.596 181.695C145.441 180.429 142.826 181.925 142.826 184.413V184.399Z" fill="#FF1A00"/>
</g>
</svg>
