<svg width="165" height="65" viewBox="0 0 165 65" fill="none" xmlns="http://www.w3.org/2000/svg">
<path d="M0 10.8325C0 3.6114 4.72432 0.000366211 14.1739 0.000366211H17.7176C29.5284 0.000366211 35.4352 4.8154 35.4352 14.4435C35.4352 19.2586 33.9587 22.8696 31.0058 25.2756C33.9587 27.6836 35.4352 31.2947 35.4352 36.1087C35.4352 45.7378 29.5284 50.5519 17.7176 50.5519H14.1739C4.72432 50.5519 0 46.9409 0 39.7188V10.8325ZM17.7479 7.22243H14.5077C12.3466 7.22243 11.2665 8.42643 11.2665 10.8325V21.6656H17.7479C22.0683 21.6656 24.2294 19.2586 24.2294 14.4435C24.2294 9.62946 22.0683 7.22243 17.7479 7.22243ZM17.7479 28.8876H11.2665V39.7661C11.2665 42.1848 12.3466 43.3936 14.5077 43.3936H17.7479C22.0692 43.3936 24.2294 40.9759 24.2294 36.1406C24.2294 31.3053 22.0692 28.8876 17.7479 28.8876Z" fill="#E50914"/>
<path d="M38.6328 50.5788H49.2639V17.8795C49.2639 16.346 47.632 15.3894 46.3309 16.1605L39.8267 20.015C39.088 20.4527 38.6328 21.2576 38.6328 22.1283V50.5788Z" fill="#E50914"/>
<path d="M86.8344 32.4503V50.5045H76.2043V32.4503C76.2043 25.2282 73.8412 21.6181 69.1169 21.6181L66.6163 21.6655C64.2541 21.6655 63.0725 22.8695 63.0725 25.2755V50.5518H52.4424V25.2755C52.4424 18.0544 57.1667 14.4434 66.6163 14.4434L69.1169 14.3961C80.9286 14.3961 86.8344 20.4141 86.8344 32.4503Z" fill="#E50914"/>
<path d="M107.731 50.5517C95.9452 50.5517 90.0393 44.5598 90.0137 32.5748C89.9929 22.5699 97.9442 14.4443 107.763 14.4434H111.275C120.725 14.4434 125.449 18.0544 125.449 25.2755V46.9407C125.449 56.9119 117.517 64.9949 107.731 64.9949H99.6548C98.4202 64.9949 97.7336 63.5406 98.5036 62.5579L101.082 59.2667C101.822 58.3226 102.943 57.7738 104.128 57.7738H107.731C111.818 57.7738 114.133 55.0769 114.676 49.685C112.645 50.2628 110.33 50.5517 107.731 50.5517ZM100.645 32.4975C100.645 39.7186 103.006 43.3306 107.731 43.3306C112.456 43.3306 114.819 39.7186 114.819 32.4975V25.2755C114.819 22.8694 113.637 21.6654 111.275 21.6654H107.731C103.006 21.6654 100.645 25.2755 100.645 32.4975Z" fill="#E50914"/>
<path d="M164.062 32.4976L164.089 35.3191C164.094 35.754 163.75 36.1086 163.323 36.1086H140.423C139.939 36.1086 139.571 36.5656 139.67 37.0488C140.528 41.2367 142.753 43.3307 146.344 43.3307C150.622 43.3307 152.963 42.0658 153.368 40.0385C153.443 39.6626 153.746 39.3795 154.124 39.3795H163.212C163.68 39.3795 164.042 39.8037 163.975 40.2752C163.214 45.7319 158.198 50.0396 148.196 50.5092C137.223 51.0243 128.053 41.7759 128.679 30.6007C129.282 19.8295 135.171 14.4434 146.344 14.4434C158.156 14.4434 164.062 20.4614 164.062 32.4976ZM152.265 28.8875C152.751 28.8875 153.118 28.4304 153.019 27.9463C152.16 23.7594 149.935 21.6654 146.344 21.6654C142.753 21.6654 140.528 23.7594 139.67 27.9463C139.571 28.4304 139.939 28.8875 140.423 28.8875H152.265Z" fill="#E50914"/>
<path d="M40.835 1.95892L49.2804 6.89184C50.7132 7.72961 50.7388 9.8226 49.3259 10.6604L41.001 15.5933C39.588 16.4311 37.7958 15.3846 37.7759 13.709L37.6555 3.84319C37.6346 2.16861 39.4012 1.12211 40.835 1.95892Z" fill="#666666"/>
<path d="M38.6416 4.09439V13.6355C38.6416 14.6038 39.6705 15.2087 40.4936 14.7246L48.6023 9.95494C49.4254 9.47083 49.4254 8.26007 48.6023 7.77596L40.4936 3.00538C39.6705 2.52127 38.6416 3.12617 38.6416 4.09439Z" fill="white"/>
</svg>
