<svg xmlns="http://www.w3.org/2000/svg" width="124" height="124" viewBox="0 0 124 124" fill="none">
  <circle cx="62" cy="62" r="62" fill="#1E1E1E"/>
  <path d="M42 45.9996C42 38.0002 47.1996 34 57.5998 34H61.5C74.499 34 81 39.334 81 49.9998C81 55.3338 79.375 59.3341 76.125 61.9995C79.375 64.667 81 68.6672 81 74.0002C81 84.6671 74.499 90 61.5 90H57.5998C47.1996 90 42 85.9998 42 77.9993V45.9996ZM61.5334 42.0005H57.9672C55.5886 42.0005 54.3999 43.3342 54.3999 45.9996V58.0003H61.5334C66.2884 58.0003 68.6669 55.3338 68.6669 49.9998C68.6669 44.6669 66.2884 42.0005 61.5334 42.0005ZM61.5334 66.0008H54.3999V78.0518C54.3999 80.7311 55.5886 82.0702 57.9672 82.0702H61.5334C66.2894 82.0702 68.6669 79.392 68.6669 74.0355C68.6669 68.679 66.2894 66.0008 61.5334 66.0008Z" fill="black"/>
</svg>