<svg width="32" height="32" viewBox="0 0 677 646" fill="none" >
<path d="M238.977 204.884L273.192 4.10461H327.918L293.678 204.884H238.977ZM491.398 8.43282C480.558 4.36513 463.567 0 442.351 0C388.273 0 350.184 27.2318 349.857 66.2605C349.553 95.1108 377.052 111.206 397.81 120.809C419.114 130.653 426.274 136.928 426.171 145.715C426.035 159.174 409.16 165.32 393.429 165.32C371.526 165.32 359.889 162.277 341.916 154.784L334.862 151.593L327.183 196.538C339.965 202.146 363.601 206.999 388.145 207.251C445.673 207.251 483.018 180.33 483.443 138.651C483.647 115.81 469.068 98.4308 437.493 84.0995C418.365 74.8113 406.65 68.6133 406.774 59.2082C406.774 50.8626 416.69 41.9385 438.118 41.9385C456.011 41.6605 468.977 45.5631 479.078 49.6308L483.981 51.9477L491.398 8.43282ZM632.229 4.10153H589.942C576.842 4.10153 567.037 7.67693 561.285 20.7518L480.008 204.752H537.476C537.476 204.752 546.87 180.012 548.995 174.58C555.275 174.58 611.103 174.666 619.083 174.666C620.72 181.695 625.742 204.752 625.742 204.752H676.523L632.229 4.09538V4.10153ZM565.134 133.753C569.662 122.185 586.939 77.6256 586.939 77.6256C586.617 78.16 591.433 66.001 594.195 58.4626L597.893 75.7733C597.893 75.7733 608.372 123.701 610.563 133.75H565.134V133.753ZM192.519 4.10153L138.94 141.025L133.233 113.2C123.257 81.1241 92.1815 46.3723 57.4399 28.9744L106.432 204.564L164.334 204.5L250.492 4.09948L192.519 4.09846" fill="#0E4595"/>
<path d="M88.9467 4.09436H0.69949L0 8.27179C68.6554 24.8913 114.082 65.0544 132.944 113.318L113.755 21.0513C110.443 8.33743 100.835 4.54255 88.9487 4.09948" fill="#F2AE14"/>
<path fillRule="evenodd" clipRule="evenodd" d="M258.364 603.319V623.689V644.06H249.436V639.113C246.604 642.782 242.308 645.084 236.468 645.084C224.953 645.084 215.927 636.138 215.927 623.689C215.927 611.25 224.953 602.294 236.468 602.294C242.308 602.294 246.604 604.596 249.436 608.265V603.319H258.364ZM237.578 610.646C229.85 610.646 225.12 616.529 225.12 623.689C225.12 630.85 229.85 636.733 237.578 636.733C244.963 636.733 249.948 631.104 249.948 623.689C249.948 616.275 244.963 610.646 237.578 610.646ZM560.073 623.689C560.073 616.529 564.803 610.646 572.531 610.646C579.926 610.646 584.901 616.275 584.901 623.689C584.901 631.104 579.926 636.733 572.531 636.733C564.803 636.733 560.073 630.85 560.073 623.689ZM593.328 586.958V623.689V644.06H584.39V639.113C581.557 642.782 577.261 645.084 571.421 645.084C559.906 645.084 550.88 636.138 550.88 623.689C550.88 611.25 559.906 602.294 571.421 602.294C577.261 602.294 581.557 604.596 584.39 608.265V586.958H593.328ZM369.19 610.226C374.942 610.226 378.639 613.806 379.583 620.109H358.276C359.229 614.226 362.828 610.226 369.19 610.226ZM348.914 623.689C348.914 610.987 357.331 602.294 369.367 602.294C380.872 602.294 388.776 610.987 388.865 623.689C388.865 624.879 388.777 625.992 388.688 627.094H358.197C359.485 634.431 364.725 637.075 370.477 637.075C374.597 637.075 378.983 635.533 382.425 632.811L386.8 639.377C381.815 643.552 376.152 645.084 369.967 645.084C357.676 645.084 348.914 636.646 348.914 623.689ZM477.174 623.689C477.174 616.529 481.903 610.646 489.632 610.646C497.015 610.646 502.001 616.275 502.001 623.689C502.001 631.104 497.015 636.733 489.632 636.733C481.903 636.733 477.174 630.85 477.174 623.689ZM510.418 603.319V623.689V644.06H501.49V639.113C498.648 642.782 494.361 645.084 488.52 645.084C477.005 645.084 467.979 636.138 467.979 623.689C467.979 611.25 477.005 602.294 488.52 602.294C494.361 602.294 498.648 604.596 501.49 608.265V603.319H510.418ZM426.75 623.689C426.75 636.05 435.423 645.084 448.658 645.084C454.843 645.084 458.963 643.719 463.428 640.225L459.139 633.065C455.788 635.455 452.266 636.733 448.393 636.733C441.263 636.646 436.023 631.533 436.023 623.689C436.023 615.846 441.263 610.733 448.393 610.646C452.266 610.646 455.788 611.923 459.139 614.313L463.428 607.152C458.963 603.66 454.843 602.294 448.658 602.294C435.423 602.294 426.75 611.329 426.75 623.689ZM531.037 608.265C533.357 604.684 536.71 602.294 541.863 602.294C543.672 602.294 546.248 602.636 548.225 603.406L545.472 611.758C543.583 610.986 541.695 610.733 539.887 610.733C534.046 610.733 531.126 614.479 531.126 621.221V644.06H522.188V603.319H531.037V608.265ZM302.524 606.558C298.226 603.748 292.308 602.294 285.778 602.294C275.375 602.294 268.679 607.24 268.679 615.338C268.679 621.982 273.665 626.079 282.848 627.358L287.066 627.952C291.963 628.636 294.274 629.913 294.274 632.215C294.274 635.367 291.01 637.162 284.913 637.162C278.728 637.162 274.265 635.202 271.255 632.898L267.047 639.796C271.943 643.377 278.128 645.084 284.825 645.084C296.683 645.084 303.556 639.542 303.556 631.786C303.556 624.625 298.148 620.879 289.21 619.602L285.001 618.996C281.138 618.489 278.04 617.729 278.04 614.996C278.04 612.011 280.96 610.226 285.857 610.226C291.098 610.226 296.171 612.186 298.659 613.719L302.524 606.558ZM406.909 608.265C409.219 604.684 412.572 602.294 417.724 602.294C419.534 602.294 422.11 602.636 424.085 603.406L421.332 611.758C419.445 610.986 417.557 610.733 415.748 610.733C409.908 610.733 406.988 614.479 406.988 621.221V644.06H398.059V603.319H406.909V608.265ZM341.53 603.319H326.928V590.958H317.902V603.319H309.574V611.415H317.902V630.002C317.902 639.455 321.599 645.084 332.16 645.084C336.033 645.084 340.498 643.894 343.33 641.933L340.753 634.342C338.088 635.875 335.168 636.646 332.848 636.646C328.383 636.646 326.928 633.913 326.928 629.825V611.415H341.53V603.319ZM208.03 618.489V644.06H199.004V621.387C199.004 614.479 196.084 610.646 189.988 610.646C184.058 610.646 179.938 614.402 179.938 621.475V644.06H170.912V621.387C170.912 614.479 167.913 610.646 161.983 610.646C155.877 610.646 151.925 614.402 151.925 621.475V644.06H142.909V603.319H151.847V608.342C155.2 603.573 159.487 602.294 163.872 602.294C170.145 602.294 174.61 605.027 177.441 609.542C181.226 603.827 186.634 602.206 191.876 602.294C201.845 602.382 208.03 608.86 208.03 618.489Z" fill="#FFF"/>
<path d="M434.883 534.09H299.564V292.804H434.883V534.09Z" fill="#FF5F00"/>
<path d="M308.149 413.453C308.149 364.506 331.245 320.906 367.214 292.81C340.912 272.263 307.716 260 271.64 260C186.233 260 117 328.702 117 413.453C117 498.203 186.233 566.905 271.64 566.905C307.716 566.905 340.912 554.642 367.214 534.095C331.245 505.999 308.149 462.399 308.149 413.453Z" fill="#EB001B"/>
<path d="M617.439 413.453C617.439 498.203 548.206 566.905 462.799 566.905C426.721 566.905 393.527 554.642 367.214 534.095C403.192 505.999 426.29 462.399 426.29 413.453C426.29 364.506 403.192 320.906 367.214 292.81C393.527 272.263 426.721 260 462.799 260C548.206 260 617.439 328.702 617.439 413.453Z" fill="#F79E1B"/>
</svg>