<svg xmlns="http://www.w3.org/2000/svg" width="34" height="34" viewBox="0 0 34 34" fill="none">
  <path d="M30.1176 17.7836C30.1176 18.9221 29.9998 19.9822 29.7643 21.0423C29.3325 22.9268 28.5471 24.6933 27.448 26.2246C27.4086 26.2638 27.4086 26.3032 27.3694 26.3032C27.173 26.5778 26.9767 26.8136 26.7804 27.0491C26.7412 27.0883 26.7412 27.1277 26.7018 27.1277C26.0736 27.8736 25.3277 28.5801 24.5426 29.2083C23.7181 29.8758 22.815 30.4254 21.8728 30.8965C20.7344 31.4463 19.5565 31.8387 18.2609 32.1136C18.1039 32.1528 17.9076 32.1922 17.7505 32.1922C17.5935 32.2314 17.4364 32.2314 17.2794 32.2708C17.0438 32.31 16.8083 32.31 16.5727 32.3491C16.2194 32.3885 15.866 32.3885 15.5127 32.3885C15.1986 32.3885 14.8845 32.3885 14.6097 32.3491C14.06 32.31 13.5497 32.2708 13 32.1528C12.5289 32.0744 12.0185 31.9567 11.5474 31.8387C8.87767 31.0928 6.52203 29.6009 4.71605 27.6379C4.44123 27.3632 4.20568 27.0491 3.9701 26.7742C2.8708 25.3609 2.04634 23.7905 1.4967 22.0629C1.06483 20.7281 0.829269 19.2755 0.829269 17.7836C0.829269 11.973 4.24492 6.9477 9.15249 4.59206C8.72063 5.14172 8.32801 5.73062 7.97468 6.35877C7.93541 6.39804 7.89615 6.4373 7.85688 6.47657C4.95162 8.83219 3.06711 12.4441 3.06711 16.488C3.06711 17.391 3.14564 18.2547 3.34193 19.1184C3.34193 19.1969 3.3812 19.2362 3.3812 19.3147C3.42046 19.4325 3.45973 19.5896 3.45973 19.7073C3.49897 19.8251 3.53824 19.9429 3.57751 20.0999C3.69528 20.4925 3.81306 20.8459 3.9701 21.1992C4.00937 21.2778 4.04863 21.3955 4.08788 21.4741C4.16641 21.6704 4.24492 21.8274 4.32345 22.0237C4.44123 22.2592 4.55901 22.4556 4.6768 22.6519C4.75532 22.8088 4.87309 22.966 4.95162 23.1229C5.03014 23.2801 5.10867 23.3978 5.22644 23.5156C5.26571 23.5941 5.30495 23.6333 5.34422 23.7119C5.42275 23.8297 5.54053 23.9868 5.61904 24.1046C5.69757 24.2223 5.77608 24.3401 5.89386 24.4578C5.97239 24.5756 6.0509 24.6542 6.12943 24.7719C6.44352 25.1646 6.79685 25.5178 7.18947 25.8713C7.34651 26.0282 7.50355 26.146 7.66059 26.2638C7.77837 26.3815 7.89615 26.4601 8.01393 26.5387C8.13172 26.6172 8.2495 26.6956 8.36728 26.8136C8.60285 26.9705 8.8384 27.1668 9.11322 27.3238C9.27027 27.4417 9.46658 27.5201 9.62362 27.6379C9.78066 27.7164 9.9377 27.8342 10.134 27.9128C10.2125 27.9519 10.291 27.9913 10.4088 28.0305C10.4481 28.0699 10.5266 28.1091 10.5659 28.1091C10.5659 28.1091 10.6051 28.1091 10.6444 28.1483C10.7622 28.2268 10.9192 28.266 11.037 28.3054C11.0762 28.3446 11.1155 28.3446 11.194 28.384C11.3511 28.4624 11.5081 28.5017 11.6652 28.5409C11.7437 28.5801 11.8615 28.6195 11.94 28.6195C12.4111 28.7764 12.8822 28.8942 13.3534 29.0122C13.5497 29.0513 13.7067 29.0905 13.903 29.1299C14.06 29.1691 14.2171 29.1691 14.3741 29.2083C14.4919 29.2083 14.6097 29.2477 14.7667 29.2477H15.9838C17.2401 29.2477 18.4572 29.0513 19.635 28.7373C19.9884 28.6195 20.3417 28.5017 20.6951 28.384C20.9699 28.266 21.2446 28.1483 21.5195 28.0305C21.6373 27.9519 21.7944 27.9128 21.9122 27.8342C21.9907 27.795 22.0691 27.7558 22.1477 27.7164C22.2263 27.6772 22.2654 27.6379 22.344 27.5987C22.5403 27.4809 22.7367 27.3632 22.933 27.2454C23.0508 27.1668 23.2077 27.0883 23.3255 26.9705C23.4432 26.8919 23.5612 26.7742 23.7181 26.6956C23.8359 26.6172 23.9144 26.5387 24.0322 26.4601C24.1108 26.3815 24.1893 26.3423 24.2677 26.2638C24.3463 26.1854 24.464 26.1068 24.5426 26.0282C24.6604 25.9105 24.7781 25.8319 24.8959 25.7142C25.0136 25.5964 25.1314 25.4787 25.21 25.4001C25.2885 25.3215 25.4063 25.2037 25.4849 25.086C25.524 25.0468 25.5634 25.0074 25.5634 24.9682C25.6026 24.9291 25.6418 24.8505 25.7204 24.8113C25.8381 24.6933 25.9559 24.5364 26.0345 24.4186C26.113 24.3401 26.1522 24.2615 26.2308 24.1437C26.3094 24.0652 26.3877 23.9474 26.4663 23.8297C26.5057 23.7905 26.5449 23.7511 26.5449 23.6727C26.6626 23.5156 26.7412 23.3586 26.859 23.2015C26.9767 23.0445 27.0553 22.8482 27.1731 22.6911C27.2122 22.6127 27.2516 22.5341 27.33 22.4556V22.4164C27.3694 22.2986 27.448 22.22 27.4871 22.1023C27.5657 21.9845 27.6049 21.8666 27.6441 21.7488C27.7226 21.5919 27.762 21.4741 27.8404 21.317C27.8798 21.1992 27.919 21.0815 27.9582 21.0029C27.9975 20.9243 28.0367 20.8066 28.0761 20.7281C28.1153 20.6889 28.1153 20.6103 28.1153 20.5711C28.1153 20.5318 28.1545 20.4533 28.1545 20.414C28.2331 20.2177 28.3116 19.9822 28.3508 19.7859C28.3902 19.7073 28.3902 19.5896 28.4294 19.511C28.4686 19.354 28.508 19.1577 28.5471 19.0007C28.5863 18.8436 28.6257 18.6866 28.6257 18.5295C28.6649 18.3332 28.7043 18.1369 28.7043 17.9014C28.7043 17.7443 28.7435 17.6265 28.7435 17.4695C28.7435 17.3517 28.7435 17.1947 28.7827 17.0769V16.4095C28.7827 16.0561 28.7827 15.6635 28.7435 15.3102V15.1924C28.8612 15.2709 28.979 15.3494 29.0576 15.4279C29.1361 15.5065 29.2539 15.585 29.3325 15.6635C29.4894 15.3887 29.6466 15.1139 29.8427 14.8783L29.8821 14.839C29.8821 14.8783 29.8821 14.9176 29.9212 14.9568C29.9998 15.3887 30.0784 15.8598 30.1176 16.3309V16.3702C30.0784 16.8413 30.1176 17.3125 30.1176 17.7836Z" fill="#EC1C24"/>
  <path d="M28.7043 16.4487V17.1161C28.7043 17.2339 28.7043 17.391 28.6649 17.5088C28.6649 17.6658 28.6257 17.7836 28.6257 17.9406C28.5863 18.1369 28.5863 18.3332 28.5472 18.5688C28.508 18.7258 28.508 18.8829 28.4686 19.0399C28.4294 19.1969 28.3902 19.3933 28.3508 19.5503C28.3116 19.6288 28.3116 19.7466 28.2722 19.8251C28.2331 20.0607 28.1545 20.257 28.0761 20.4533C28.0761 20.4926 28.0367 20.5711 28.0367 20.6103C28.0367 20.6496 27.9976 20.7281 27.9976 20.7674C27.9582 20.8459 27.919 20.9637 27.8798 21.0423C27.8404 21.16 27.8012 21.2778 27.762 21.3564C27.7227 21.5133 27.6441 21.6311 27.5657 21.7882C27.5263 21.906 27.448 22.0237 27.4086 22.1415C27.3694 22.2592 27.2908 22.3378 27.2516 22.4556V22.4947C27.2122 22.5733 27.1731 22.6519 27.0945 22.7305C27.0159 22.8874 26.8982 23.0837 26.7804 23.2409C26.7018 23.3978 26.5841 23.555 26.4663 23.7119C26.4271 23.7511 26.3877 23.7905 26.3877 23.869C26.3094 23.9868 26.2308 24.0652 26.1522 24.1831C26.0737 24.2615 26.0345 24.3401 25.9559 24.4578C25.8381 24.5756 25.7596 24.7327 25.6418 24.8505C25.6026 24.8897 25.5634 24.9682 25.4849 25.0074C25.4455 25.0468 25.4063 25.086 25.4063 25.1254C25.3277 25.2431 25.21 25.3215 25.1314 25.4395C25.0136 25.5572 24.8959 25.675 24.8173 25.7536C24.6996 25.8713 24.5818 25.9497 24.464 26.0674C24.3855 26.146 24.2677 26.2246 24.1893 26.3032C24.1108 26.3815 24.0322 26.4209 23.9536 26.4995C23.8359 26.5779 23.7573 26.6564 23.6395 26.735C23.5218 26.8136 23.404 26.9313 23.2471 27.0097C23.1291 27.0883 23.0114 27.1668 22.8544 27.2846C22.6581 27.4024 22.4618 27.5201 22.2654 27.6379C22.1869 27.6773 22.1477 27.7164 22.0691 27.7558C21.9907 27.795 21.9122 27.8342 21.8336 27.8736C21.7158 27.952 21.5587 28.0305 21.4409 28.0699C21.1662 28.1877 20.8913 28.3054 20.6165 28.4232C20.2632 28.5409 19.9491 28.6587 19.5565 28.7764C18.4179 29.1299 17.2009 29.2869 15.9053 29.2869H14.7667C14.6489 29.2869 14.5312 29.2477 14.3741 29.2477C14.2171 29.2477 14.06 29.2083 13.903 29.1691C13.7067 29.1299 13.5497 29.0905 13.3534 29.0514C12.8822 28.9728 12.4111 28.8158 11.94 28.6587C11.8615 28.6195 11.7437 28.5801 11.6652 28.5801C11.5081 28.5409 11.3511 28.4624 11.194 28.4232C11.1548 28.4232 11.0762 28.384 11.037 28.3446C10.9192 28.3054 10.7622 28.2269 10.6444 28.1877C10.6051 28.1877 10.6051 28.1877 10.5659 28.1483C10.4873 28.1091 10.4481 28.1091 10.4088 28.0699C10.3303 28.0305 10.2125 27.9913 10.134 27.9519C9.97695 27.8736 9.81991 27.795 9.62362 27.6773C9.46658 27.5987 9.27027 27.4809 9.11323 27.3632C8.87767 27.206 8.60283 27.0491 8.36728 26.8528C8.2495 26.7742 8.13172 26.6956 8.01393 26.5779C7.89615 26.4995 7.77837 26.3815 7.6606 26.3032C7.50355 26.1854 7.34651 26.0283 7.18947 25.9105L6.63981 25.3609C6.5613 25.2823 6.48279 25.1646 6.40425 25.086C6.32574 25.0074 6.20795 24.8897 6.12943 24.7719C6.0509 24.6542 5.97239 24.5756 5.89386 24.4578C5.81535 24.3401 5.69757 24.2223 5.61904 24.1046C5.50126 23.9868 5.42275 23.8297 5.34422 23.7119C5.30496 23.6333 5.26571 23.5941 5.22644 23.5156C5.14791 23.3978 5.0694 23.2409 4.95162 23.1229C4.87309 22.966 4.75532 22.8088 4.67678 22.6519C4.55901 22.4556 4.44123 22.22 4.32345 22.0237C4.24492 21.8274 4.16641 21.6704 4.08788 21.4741C4.04863 21.3955 4.00937 21.2778 3.9701 21.1992C3.81306 20.8459 3.69528 20.4533 3.57751 20.1C3.53824 19.9822 3.49897 19.8644 3.45973 19.7073C3.42046 19.5896 3.3812 19.4325 3.3812 19.3147C3.3812 19.2362 3.34193 19.197 3.34193 19.1184C3.18489 18.2547 3.06711 17.391 3.06711 16.488C3.06711 12.4442 4.95162 8.83219 7.85688 6.47657C7.89615 6.43731 7.93542 6.39804 7.97468 6.3588C6.75761 8.51811 6.0509 10.9915 6.0509 13.622C6.0509 14.4464 6.12943 15.2317 6.24721 16.0169C6.36499 16.8021 6.5613 17.548 6.79685 18.2547C6.91465 18.5688 7.03243 18.8829 7.1502 19.1577C7.50355 19.9822 7.89615 20.7674 8.36728 21.5133C8.40654 21.5525 8.40654 21.5919 8.44579 21.6311C8.44579 21.6704 8.48505 21.7096 8.48505 21.7096V21.7488C8.52432 21.7882 8.56359 21.8274 8.56359 21.906L8.79914 22.2592C8.83841 22.3378 8.87767 22.377 8.91692 22.4556C8.95618 22.5341 9.03471 22.6127 9.07396 22.6911C9.11323 22.7305 9.11323 22.7696 9.15249 22.8088L9.19176 22.8482C9.231 22.9268 9.30953 23.0052 9.3488 23.0445C9.38804 23.0837 9.42731 23.1229 9.42731 23.1623C9.50582 23.2801 9.62362 23.3586 9.7414 23.4764L9.97695 23.7119C10.291 24.026 10.6444 24.3009 11.037 24.5364C11.7437 25.0074 12.5681 25.3609 13.4319 25.5572C13.5497 25.5964 13.6282 25.5964 13.746 25.6356C13.8245 25.6356 13.903 25.675 13.9815 25.675C14.4134 25.7536 14.806 25.7927 15.2378 25.7927C15.9053 25.7927 16.5335 25.7142 17.1224 25.5572C20.538 24.7327 23.0899 21.6311 23.0899 17.9406C23.0899 15.742 22.1869 13.779 20.7736 12.3656C23.0508 12.5227 25.1708 13.2294 27.0553 14.2894C27.1339 14.3287 27.2122 14.4072 27.33 14.4464C27.7227 14.682 28.0761 14.9176 28.4294 15.1924L28.4686 15.2317V15.3494C28.6649 15.7028 28.7043 16.0954 28.7043 16.4487Z" fill="#F6921E"/>
  <path d="M8.40654 18.2547V18.8436C7.5428 17.1161 7.03242 15.1531 7.03242 13.1116C7.03242 7.96846 10.0947 3.53202 14.4919 1.52974L17.0438 6.20174C12.0185 7.85068 8.40654 12.6405 8.40654 18.2547Z" fill="#F6921E"/>
  <path d="M25.1316 8.55736C24.1499 8.32179 23.1291 8.20401 22.0691 8.20401C19.5172 8.20401 17.1224 8.91071 15.0416 10.1278C14.4134 10.5204 13.7852 10.9522 13.2356 11.4234C12.2148 12.2871 11.3118 13.3079 10.5659 14.4072C10.1733 14.9961 9.85917 15.585 9.58435 16.2131C9.58435 16.2524 9.54508 16.2917 9.54508 16.2917C9.50584 16.3702 9.46657 16.488 9.42731 16.5665C9.42731 16.5272 9.42731 16.488 9.46657 16.4487V16.3702C9.50582 16.2131 9.54508 16.0561 9.58435 15.8598C9.66286 15.5457 9.74139 15.2709 9.85917 14.9568C10.3303 13.4649 11.0762 12.0908 12.0185 10.8737C13.5889 8.83218 15.709 7.22251 18.1431 6.31952L17.9076 5.88766L16.6905 3.61055L16.5335 3.33573C16.612 3.2572 16.7298 3.21793 16.8475 3.17869C18.8498 2.07939 21.1269 1.45122 23.5218 1.45122C23.993 1.45122 24.464 1.49048 24.8959 1.52974L25.053 5.25949V6.0447L25.1316 8.55736Z" fill="#EC1C24"/>
  <path d="M31.3739 7.7329C30.6672 7.30104 29.8821 6.94771 29.0967 6.63362C28.0367 6.24101 26.9375 5.96619 25.799 5.80914L25.8381 6.3588L25.9167 8.71442L25.9559 9.49964C24.8567 9.22482 23.6789 9.06777 22.501 9.06777C20.4988 9.06777 18.575 9.49964 16.8868 10.2456C15.6697 10.7952 14.5312 11.5019 13.5104 12.3656C13.157 12.6797 12.8037 12.9938 12.4896 13.3079C13.6674 12.6797 14.963 12.2086 16.2979 11.8945C17.4364 11.6197 18.6535 11.4627 19.8706 11.4627H19.9491C23.0899 11.4627 26.0345 12.3656 28.5471 13.9753C28.8221 14.1716 29.0967 14.3287 29.3717 14.5642L29.6857 14.0539L31.0598 11.973L31.2562 11.6589L31.688 10.9915L32.5125 9.69592L32.748 9.30333L33.0229 8.87146C32.5125 8.47885 31.9629 8.08625 31.3739 7.7329ZM27.2122 6.16249H27.2516C27.2908 6.16249 27.2908 6.16249 27.33 6.20176C27.2908 6.20176 27.2516 6.16249 27.2122 6.16249Z" fill="#F6921E"/>
  <path d="M14.4919 15.3494C14.4919 15.3494 13.5889 15.5457 13.6674 15.1139C13.6674 14.9176 13.7852 14.8783 13.8637 14.9176C13.8637 14.839 13.6674 14.6035 14.0993 14.4857C14.2171 14.2894 14.3349 14.1324 14.4134 14.0146C14.4919 13.8968 14.5312 13.7005 14.8845 13.8183C15.2379 13.8968 15.5912 14.2501 15.6697 14.3679C15.866 14.3679 16.1016 14.4464 16.0231 14.4464C15.9445 14.5249 15.9053 14.5642 15.9053 14.5642C15.9053 14.5642 16.0231 14.6427 15.6697 14.6427C15.6697 14.7213 15.7482 14.7605 15.7875 14.7605C15.866 14.839 15.7875 14.839 15.7875 14.8783C15.7875 14.8783 15.866 15.0746 15.6697 14.9961C15.4734 14.9176 15.4734 14.8783 15.4342 14.8783C15.3556 14.8783 15.2379 14.8783 15.2379 14.9568C15.2379 15.0353 15.4342 15.1531 15.2379 15.1531C15.1593 15.2317 15.3164 15.2709 15.2379 15.2709C15.1593 15.3494 14.7667 15.6242 14.5704 15.7028C14.3741 15.7028 14.3349 15.6242 14.3349 15.585C14.3349 15.5457 14.4527 15.4672 14.5704 15.4672C14.4919 15.3887 14.5312 15.3494 14.4919 15.3494Z" fill="#EC1C24"/>
  <path d="M14.4134 16.2917C14.3349 16.2917 14.06 16.0954 14.2171 16.0561C14.3349 15.9383 14.9238 15.585 15.0416 15.5065C15.1593 15.4279 15.3556 15.6242 15.1593 15.742C15.0023 15.9383 14.4134 16.2917 14.4134 16.2917Z" fill="#EC1C24"/>
  <path d="M15.3164 15.8598C15.3164 15.742 15.4342 15.3887 15.4342 15.3102C15.4342 15.2316 15.7482 15.1924 15.6697 15.5457C15.5519 15.8598 15.3164 16.0169 15.3164 15.8598Z" fill="#EC1C24"/>
  <path d="M15.7482 15.1531C15.7482 15.1531 17.4364 15.0746 17.5542 15.1531C17.672 15.2317 18.2609 16.0954 18.1039 16.8806C17.9861 17.6658 17.7505 17.8228 16.6512 17.9799C16.6512 17.7443 16.5727 17.0769 16.4549 16.8806C16.3371 16.6843 15.9838 16.2917 15.866 16.2917C15.866 16.488 15.7875 16.9984 15.7875 16.9984C15.7875 16.9984 15.2378 17.0769 15.1986 16.9199V16.0954C15.1986 16.0954 15.6697 15.6635 15.7482 15.5457C15.8268 15.6242 15.866 15.8598 16.4157 15.7813C16.4157 15.8598 15.7482 15.9383 15.7482 15.1531Z" fill="#EC1C24"/>
  <path d="M15.0808 15.9383C15.0808 15.9383 14.5312 16.3702 14.4134 16.488C14.3349 16.6058 14.2956 17.0769 14.963 17.0769C15.0808 16.7628 15.0808 15.9383 15.0808 15.9383Z" fill="#EC1C24"/>
  <path d="M13.8245 16.6058C13.6282 16.6058 13.5104 16.5272 13.5104 16.4095C13.5104 16.2917 13.746 16.0954 13.9423 16.1739C14.06 16.2524 14.3741 16.2917 14.3741 16.8413C14.4919 16.9591 14.806 17.1947 15.1986 17.1947C15.6305 17.1947 15.866 17.1947 15.866 17.3125V18.0977C15.866 18.0977 15.3949 18.0977 14.1778 17.2732C14.06 17.1554 13.9815 17.0376 13.9815 16.8413C13.9815 16.645 13.8637 16.6058 13.8245 16.6058Z" fill="#EC1C24"/>
  <path d="M13.4711 16.645C13.2748 16.645 12.6859 17.1161 13.1178 17.3125C13.2356 17.1947 13.3534 17.0769 13.3534 17.0769C13.3534 17.0769 13.2356 17.391 13.4711 17.4302C13.7067 17.5088 13.5889 17.3125 13.7067 17.3125C13.7852 17.4302 13.7852 17.5088 13.903 17.5088C14.0208 17.5088 14.0208 17.1554 13.903 16.9591C13.8245 16.7628 13.7067 16.645 13.4711 16.645Z" fill="#EC1C24"/>
  <path d="M15.9838 16.7235V18.2939C15.9838 18.2939 16.4549 18.0977 16.5335 17.9799C16.5335 17.7443 16.4157 16.7235 15.9838 16.7235Z" fill="#EC1C24"/>
  <path d="M14.7275 17.7443C14.7275 17.7443 15.3164 18.1762 15.6697 18.294C15.5912 18.3725 15.3556 18.7258 15.2379 18.6473C15.1986 18.6473 14.7667 18.0584 14.7275 17.7443Z" fill="#EC1C24"/>
  <path d="M12.6074 18.6473H11.8222L11.7829 18.3332H12.6074V18.6473Z" fill="#EC1C24"/>
  <path d="M17.829 18.5688H20.7344V18.1762H17.3186L17.829 18.5688Z" fill="#EC1C24"/>
  <path d="M16.6512 18.1762C16.7298 18.0977 17.1224 18.4118 17.0046 18.4903C16.8868 18.5688 15.7875 18.9614 15.7482 18.9614C15.6305 18.8829 15.6697 18.6473 15.8268 18.6081C15.866 18.5295 16.4549 18.3332 16.6512 18.1762Z" fill="#EC1C24"/>
  <path d="M15.4342 18.8829C15.3164 18.8044 14.6489 19.4718 14.963 19.5503C15.2771 19.6288 15.9838 19.7466 16.1801 19.8644C16.3764 19.7859 16.4942 19.6288 16.4942 19.5503C16.612 19.5503 16.8083 19.7466 16.9653 19.6681C17.1616 19.5896 17.9861 19.0007 17.9861 18.8829C17.7898 18.7651 17.4364 18.5295 17.2794 18.5295C17.1224 18.451 16.0231 19.1184 15.4342 18.8829Z" fill="#EC1C24"/>
  <path d="M15.0808 19.7073C15.1593 19.7073 16.0231 20.0214 16.2194 20.0214C16.4549 19.9429 16.4549 19.7859 16.5727 19.7859C16.6905 19.7859 16.769 19.9036 16.9261 19.7859C17.1224 19.6681 17.515 19.3147 17.5935 19.2362C17.5935 19.354 17.5935 19.7073 16.8083 20.0607C16.0231 20.414 14.1778 20.9637 14.0993 21.1992C14.1778 21.1992 14.4134 21.1206 14.5704 21.0815C14.6882 21.16 14.8845 21.3955 14.806 21.7882C14.7275 22.22 14.4527 22.8874 14.4527 23.0445V24.1831C14.4527 24.2615 14.649 24.7719 14.3741 24.7327C14.0993 24.6933 14.0208 24.6541 13.903 24.7327C13.7852 24.7327 13.5889 24.929 13.4711 24.8505C13.2748 24.8505 13.0393 24.7327 13.0393 24.6541C13.0393 24.5756 13.2356 24.5756 13.3926 24.5364C13.5889 24.4578 13.6282 24.3009 13.9423 24.1831C13.9423 23.9868 13.8245 22.4947 13.8245 22.1806C13.8245 21.8666 13.7067 21.2384 13.903 20.9637C14.0601 20.6889 14.7667 19.6681 15.0808 19.7073Z" fill="#EC1C24"/>
  <path d="M16.2194 20.5711C16.2194 20.6888 16.769 22.0237 17.0046 22.0237C17.2401 22.0237 19.478 21.5525 19.8706 21.7096C19.9884 21.9059 20.2239 22.1806 20.2239 22.377C20.2239 22.377 20.3025 22.8088 20.2239 22.8482C20.3025 22.8482 20.4595 22.7696 20.538 22.6519C20.6165 22.5341 20.538 21.9451 20.538 21.8274C20.538 21.7096 20.8522 21.16 20.4595 21.2384C20.1061 21.2384 19.0854 21.2384 18.7321 21.16C18.418 21.0814 17.6328 20.9245 17.4757 21.0423C17.2794 21.16 17.0438 21.4741 17.0438 21.5133C16.9653 21.5133 16.9261 21.4347 17.0438 21.1992C17.1224 20.9637 17.3972 20.2962 17.3579 19.9429C17.1616 20.0214 16.2194 20.5711 16.2194 20.5711Z" fill="#EC1C24"/>
  <path d="M14.963 18.451C14.963 18.5295 15.0416 18.6473 15.0808 18.6866L13.3534 18.5688C13.3534 18.5688 13.157 18.451 13.2356 18.3725L14.963 18.451Z" fill="#EC1C24"/>
  <path d="M13.0393 18.3332H14.7667C14.7667 18.3332 14.649 18.1369 14.5704 18.0191H12.9608C12.9608 18.0191 12.7644 18.0191 12.7644 18.3725C12.8037 18.451 12.9215 18.5688 13.0393 18.3332Z" fill="#EC1C24"/>
  <path d="M11.3511 18.6473H11.7044C11.7044 18.6473 11.8222 18.5688 11.7044 18.451C11.5866 18.3332 11.3511 18.2154 11.5081 17.9799C11.3118 17.9799 11.0762 17.9014 11.1548 18.451H10.9585C10.9585 18.451 10.8799 18.1369 10.4873 18.1369C10.0555 18.1369 9.03471 18.5688 9.03471 18.5688C9.03471 18.5688 10.1733 18.8829 10.4873 18.8829C10.8014 18.8829 10.9585 18.5688 10.9585 18.5688H11.0762C11.0762 18.5688 11.1548 18.8044 11.194 18.8829V19.2362C11.194 19.2362 11.037 19.3147 11.1155 19.4718C11.1155 19.6681 11.2333 19.6681 11.3118 19.6681C11.3903 19.6681 11.3903 19.5896 11.5474 19.5896C11.6259 19.511 11.5474 19.2755 11.4296 19.2362V19.0007C11.4296 19.0007 11.5474 18.8829 11.5474 18.8044C11.4688 18.6866 11.3511 18.7651 11.3511 18.6473Z" fill="#EC1C24"/>
  <path d="M13.4711 20.3355C13.5889 20.257 13.6674 20.0999 13.6674 20.0999V19.0792C13.6674 18.8436 13.2356 18.6473 13.1963 18.6473C13.1178 18.7258 13 18.7651 12.9608 18.7651C12.843 18.7651 12.7644 18.7651 12.6467 18.6473C12.2933 18.6473 12.097 19.0792 12.097 19.1184C12.097 19.1969 12.0185 19.9429 12.097 20.0607C12.097 20.1785 12.2148 20.2962 12.2933 20.3748C12.2148 20.6103 11.8615 21.9845 12.3718 22.1807V22.4164H13.5889V22.1807C13.8637 21.906 13.5889 20.6889 13.4711 20.3355ZM12.0577 19.0792C12.0577 19.0007 12.2541 18.7258 12.4896 18.7258C12.6074 18.8436 12.7252 18.8436 12.843 18.8436C12.9608 18.8436 13.0785 18.7258 13.157 18.7258C13.2748 18.8044 13.5104 18.9221 13.5104 19.0792V20.0999C13.5104 20.1785 13.4319 20.2177 13.3926 20.2962H13.157V19.8251H12.3718V20.257H12.1755C12.097 20.1785 12.0577 20.1392 12.0577 20.0214V19.0792ZM12.9215 21.906H12.6859C12.6074 21.906 12.5681 21.8274 12.5681 21.7882C12.5681 21.7096 12.6467 21.6704 12.6859 21.6704H12.9215C13 21.6704 13.0393 21.7488 13.0393 21.7882C13.0393 21.8274 12.9608 21.906 12.9215 21.906ZM13.3926 22.0237L12.8037 21.3564L12.2541 22.0237C11.9007 21.906 12.1363 20.8066 12.2541 20.3355H13.3926C13.5104 20.8066 13.7067 21.8274 13.3926 22.0237Z" fill="#EC1C24"/>
  <path d="M13.1963 20.8066C13.3141 20.6103 13.1178 20.4926 13.1178 20.4926H12.4111C12.1755 20.4926 12.2148 20.8066 12.2148 20.8066L12.6467 21.16C12.8037 21.16 13.0785 21.0029 13.1963 20.8066Z" fill="#EC1C24"/>
  <path d="M12.9215 21.2386L13.3534 21.7096C13.3534 21.7096 13.2748 21.1206 13.2748 20.9245C13.1963 21.0029 12.9215 21.2386 12.9215 21.2386Z" fill="#EC1C24"/>
  <path d="M12.2933 20.9245C12.2933 21.1206 12.2148 21.7096 12.2148 21.7096L12.6467 21.2386C12.6859 21.2386 12.4504 21.0029 12.2933 20.9245Z" fill="#EC1C24"/>
  <path d="M12.4111 19.6681H13.2356V19.5895C13.2356 19.511 13.1571 19.511 13.1571 19.511H12.4896C12.4111 19.511 12.4111 19.5895 12.4111 19.5895V19.6681Z" fill="#EC1C24"/>
  <path d="M13.4711 22.4164H12.097V22.4947C12.097 22.5733 12.1755 22.5733 12.1755 22.5733H13.3926C13.4711 22.5733 13.4711 22.4947 13.4711 22.4947V22.4164Z" fill="#EC1C24"/>
</svg>