<svg xmlns="http://www.w3.org/2000/svg" width="32" height="32" viewBox="0 0 32 32" fill="none">
  <g opacity="0.5">
    <path d="M22.7424 16.7669C19.5317 16.8437 19.5264 21.5498 22.736 21.6352C25.9467 21.5573 25.9509 16.8533 22.7424 16.7669ZM21.9051 19.2042C21.9061 18.112 23.5669 18.1077 23.5733 19.2C23.5691 20.289 21.9136 20.2933 21.9051 19.2042Z" fill="white"/>
    <path d="M16.3413 15.2331C19.5509 15.152 19.5509 10.4459 16.3413 10.3648C13.1306 10.4469 13.1328 15.1499 16.3413 15.2331ZM16.3413 11.9659C17.4325 11.9701 17.4325 13.6299 16.3413 13.6341C15.2501 13.6288 15.2512 11.9723 16.3413 11.9659Z" fill="white"/>
    <path d="M24.736 10.8139C24.4235 10.5003 23.9147 10.4992 23.6011 10.8117L14.3317 20.0373C14.0128 20.3435 14.0032 20.8501 14.3093 21.168C14.6219 21.4944 15.1456 21.4955 15.4603 21.1712L24.7307 11.9467C25.0453 11.6352 25.0475 11.1285 24.736 10.8139Z" fill="white"/>
    <path d="M9.44212 11.2394C9.00052 11.2394 8.64212 11.5978 8.64212 12.0394V14.0906C8.64212 14.5322 9.00052 14.8906 9.44212 14.8906C9.88372 14.8906 10.2421 14.5322 10.2421 14.0906V12.0394C10.2421 11.5978 9.88372 11.2394 9.44212 11.2394Z" fill="white"/>
    <path d="M9.44212 17.1104C9.00052 17.1104 8.64212 17.4688 8.64212 17.9104V19.9605C8.64212 20.4021 9.00052 20.7605 9.44212 20.7605C9.88372 20.7605 10.2421 20.4021 10.2421 19.9605V17.9104C10.2421 17.4688 9.88372 17.1104 9.44212 17.1104Z" fill="white"/>
    <path d="M30.2709 13.3568C31.1744 12.8725 31.7365 11.9285 31.7333 10.9035V8.16C31.7312 6.61866 30.4832 5.37066 28.9419 5.36853H3.05812C1.51679 5.37066 0.26879 6.61866 0.266656 8.16V10.9013C0.263456 11.9264 0.82559 12.8704 1.72906 13.3547C3.18932 14.1365 3.73972 15.9541 2.95786 17.4144C2.67839 17.936 2.25066 18.3637 1.72906 18.6432C0.824523 19.1285 0.26239 20.0725 0.266656 21.0987V23.84C0.26879 25.3813 1.51679 26.6293 3.05812 26.6315H28.9419C30.4832 26.6293 31.7312 25.3813 31.7333 23.84V21.0987C31.7365 20.0736 31.1744 19.1296 30.2709 18.6453C28.176 17.5968 28.192 14.4053 30.2709 13.3568ZM27.6363 18.1696C28.064 18.9685 28.7189 19.6235 29.5179 20.0512C29.9008 20.2581 30.1376 20.6592 30.1333 21.0944V23.8357C30.1323 24.4939 29.6 25.0261 28.9419 25.0272H10.24C10.1963 24.3339 10.5152 23.0069 9.43999 22.9803C8.36372 23.0059 8.68372 24.3392 8.63999 25.0315H3.05812C2.39999 25.0304 1.86772 24.4981 1.86666 23.84V21.0987C1.86239 20.6635 2.09919 20.2624 2.48212 20.0555C4.72106 18.8565 5.56266 16.0693 4.36372 13.8304C3.93599 13.0315 3.28106 12.3765 2.48212 11.9488C2.09919 11.7419 1.86239 11.3408 1.86666 10.9056V8.16C1.86772 7.50186 2.39999 6.9696 3.05812 6.96853H8.63999C8.68372 7.66293 8.36266 8.99306 9.43999 9.01973C10.5163 8.99413 10.1963 7.6608 10.24 6.96853H28.9419C29.6 6.9696 30.1323 7.50186 30.1333 8.16V10.9013C30.1376 11.3365 29.9008 11.7376 29.5179 11.9445C27.2789 13.1435 26.4363 15.9307 27.6363 18.1696Z" fill="white"/>
  </g>
</svg>